<svg width="297.176758" height="278.851746" viewBox="0 0 297.177 278.852" fill="none" xmlns="http://www.w3.org/2000/svg" xmlns:xlink="http://www.w3.org/1999/xlink">
	<desc>
			Created with Pixso.
	</desc>
	<defs/>
	<path id="Rectangle 61" d="M141.25 144.67L264.39 160.97C271.35 161.89 273.84 170.7 268.39 175.12L230.09 206.22C228.35 207.63 226.11 208.25 223.91 207.93L86.28 188C78.59 186.88 76.84 176.56 83.73 172.97L136.52 145.51C137.98 144.75 139.63 144.46 141.25 144.67Z" fill="#9F9F9F" fill-opacity="1.000000" fill-rule="evenodd"/>
	<path id="Rectangle 56" d="M161.7 43.13L269.87 54.58L280.52 58.77L271.31 140.22L267.77 148.32L208.73 141.94L155.52 134.7L150.69 130.61L154.55 95.77L161.7 43.13Z" fill="#5A63A0" fill-opacity="1.000000" fill-rule="nonzero"/>
	<path id="Rectangle 57" d="M149.04 134.1L264.83 149.42L269.11 157.28L216.1 193.94L84.91 175.44L86.11 167.95L149.04 134.1Z" fill="#0C0C0C" fill-opacity="1.000000" fill-rule="evenodd"/>
	<path id="Vector 37" d="M265.27 160.91L221.48 191.84C216.09 195.65 208.74 194.8 205.74 193.89L87.64 177.36C84.23 175.58 84.31 168.95 86.37 167.61L136.62 140.92L149.31 134.19L153.71 134.77C150.5 132.66 150.09 128.53 150.29 126.73L159.89 52.39C160.53 41.93 166.15 42.22 168.93 42.36L168.97 42.36L273.75 54.59C281.03 56.06 281.83 61.88 281.32 64.6L271.88 143.45C270.98 148.57 266.09 149.45 263.76 149.25C270.25 153.93 267.47 158.98 265.27 160.91Z" fill="#5A63A0" fill-opacity="1.000000" fill-rule="nonzero"/>
	<path id="Vector 37" d="M153.71 134.77C150.5 132.66 150.09 128.53 150.29 126.73L159.89 52.39C160.54 41.88 166.21 42.22 168.97 42.36L273.75 54.59C281.03 56.06 281.83 61.88 281.32 64.6L271.88 143.45C270.98 148.57 266.09 149.45 263.76 149.25L153.71 134.77L149.31 134.19L136.62 140.92L86.37 167.61C84.31 168.95 84.23 175.58 87.64 177.36L205.74 193.89C208.74 194.8 216.09 195.65 221.48 191.84L265.27 160.91C267.47 158.98 270.25 153.93 263.76 149.25" stroke="#5A63A0" stroke-opacity="1.000000" stroke-width="4.000000"/>
	<path id="Rectangle 58" d="M153.73 142.34L235.82 154.43C239.45 154.96 240.5 159.68 237.45 161.71L222.5 171.65C221.67 172.21 220.67 172.43 219.68 172.28L135.94 159.4C132.16 158.82 131.27 153.79 134.62 151.95L151.21 142.8C151.98 142.37 152.86 142.21 153.73 142.34Z" fill="#0C0C0C" fill-opacity="1.000000" fill-rule="evenodd"/>
	<path id="Rectangle 59" d="M143.65 167.58L172.03 171.94C175.59 172.48 176.67 177.08 173.74 179.16L172.88 179.76C172.02 180.37 170.96 180.61 169.93 180.44L141.75 175.85C138.01 175.24 137.14 170.26 140.43 168.41L141.08 168.05C141.86 167.61 142.76 167.45 143.65 167.58Z" fill="#0C0C0C" fill-opacity="1.000000" fill-rule="evenodd"/>
	<path id="Rectangle 60" d="M172.51 51.13L264.31 61.72C266.52 61.97 268.09 63.98 267.82 66.19L259.09 135.55C258.81 137.76 256.78 139.32 254.57 139.02L162.7 126.25C160.52 125.94 158.99 123.95 159.28 121.77L168.08 54.59C168.37 52.42 170.34 50.88 172.51 51.13Z" fill="#F6F6F6" fill-opacity="1.000000" fill-rule="evenodd"/>
	<circle id="Ellipse 11" r="3.500000" transform="matrix(0.991629 -0.129122 0.128792 0.991672 188.745 86.0189)" fill="#0C0C0C" fill-opacity="1.000000"/>
	<circle id="Ellipse 11" r="3.000000" transform="matrix(0.991629 -0.129122 0.128792 0.991672 188.745 86.0189)" stroke="#0C0C0C" stroke-opacity="1.000000" stroke-width="1.000000"/>
	<circle id="Ellipse 12" r="3.500000" transform="matrix(0.991629 -0.129122 0.128792 0.991672 229.745 90.0189)" fill="#0C0C0C" fill-opacity="1.000000"/>
	<path id="Vector 38" d="M182.13 80.28L182.12 80.3C181.36 80.67 180.48 80.36 180.11 79.61C179.75 78.85 180.05 77.97 180.81 77.6L180.84 77.61L182.13 80.28ZM195.03 70.74L195.04 70.71C195.8 70.34 196.68 70.65 197.04 71.4C197.41 72.16 197.1 73.04 196.35 73.41L196.32 73.4L195.03 70.74Z" fill="#0C0C0C" fill-opacity="1.000000" fill-rule="nonzero"/>
	<path id="Vector 38" d="M181.46 78.95L195.69 72.06" stroke="#0C0C0C" stroke-opacity="1.000000" stroke-width="3.000000" stroke-linecap="round"/>
	<path id="Vector 39" d="M233.95 70.94L233.95 70.91C233.24 70.45 232.33 70.64 231.87 71.34C231.4 72.04 231.59 72.96 232.29 73.42L232.32 73.41L233.95 70.94ZM245.48 82.09L245.48 82.11C246.19 82.58 247.1 82.39 247.56 81.69C248.03 80.99 247.84 80.07 247.14 79.61L247.11 79.62L245.48 82.09Z" fill="#0C0C0C" fill-opacity="1.000000" fill-rule="nonzero"/>
	<path id="Vector 39" d="M233.12 72.17L246.31 80.86" stroke="#0C0C0C" stroke-opacity="1.000000" stroke-width="3.000000" stroke-linecap="round"/>
	<path id="Vector 40" d="M206.9 113.28L206.89 113.3C206.15 113.69 205.26 113.4 204.87 112.66C204.49 111.91 204.77 111.02 205.52 110.64L205.55 110.65L206.9 113.28ZM226.8 105.16L226.82 105.14C227.65 105.21 228.26 105.93 228.18 106.76C228.11 107.6 227.4 108.2 226.56 108.13L226.54 108.11L226.8 105.16Z" fill="#0C0C0C" fill-opacity="1.000000" fill-rule="nonzero"/>
	<path id="Vector 40" d="M206.21 111.97C210.82 109.59 221.07 106.16 226.69 106.64" stroke="#0C0C0C" stroke-opacity="1.000000" stroke-width="3.000000" stroke-linecap="round"/>
	<path id="Vector" d="M95.45 66.75C95.45 67.76 95.15 68.75 94.59 69.6C94.02 70.44 93.22 71.1 92.28 71.49C91.35 71.88 90.31 71.98 89.32 71.78C88.32 71.58 87.41 71.09 86.69 70.38C85.97 69.66 85.48 68.74 85.28 67.75C85.08 66.75 85.19 65.72 85.58 64.78C85.96 63.84 86.62 63.04 87.47 62.48C88.31 61.91 89.3 61.61 90.32 61.61C91.68 61.61 92.99 62.15 93.95 63.11C94.91 64.08 95.45 65.38 95.45 66.75ZM90.32 20.53C80.88 20.53 73.2 27.44 73.2 35.94L73.2 37.65C73.2 38.56 73.56 39.43 74.21 40.07C74.85 40.71 75.72 41.07 76.63 41.07C77.53 41.07 78.4 40.71 79.05 40.07C79.69 39.43 80.05 38.56 80.05 37.65L80.05 35.94C80.05 31.23 84.66 27.38 90.32 27.38C95.98 27.38 100.59 31.23 100.59 35.94C100.59 40.64 95.98 44.5 90.32 44.5C89.41 44.5 88.54 44.86 87.9 45.5C87.26 46.14 86.9 47.01 86.9 47.92L86.9 51.34C86.9 52.25 87.26 53.12 87.9 53.76C88.54 54.4 89.41 54.76 90.32 54.76C91.23 54.76 92.1 54.4 92.74 53.76C93.38 53.12 93.74 52.25 93.74 51.34L93.74 51.03C101.55 49.6 107.43 43.37 107.43 35.94C107.43 27.44 99.76 20.53 90.32 20.53ZM134.82 44.5C134.82 53.3 132.21 61.9 127.32 69.22C122.43 76.54 115.48 82.24 107.35 85.61C99.22 88.98 90.27 89.86 81.64 88.14C73.01 86.42 65.08 82.18 58.85 75.96C52.63 69.74 48.39 61.81 46.67 53.18C44.96 44.54 45.84 35.6 49.21 27.47C52.57 19.33 58.28 12.38 65.6 7.49C72.91 2.6 81.52 0 90.32 0C102.12 0.01 113.43 4.7 121.77 13.04C130.11 21.39 134.81 32.7 134.82 44.5ZM127.97 44.5C127.97 37.05 125.76 29.77 121.63 23.58C117.49 17.38 111.61 12.56 104.73 9.71C97.85 6.86 90.28 6.11 82.97 7.56C75.67 9.02 68.96 12.6 63.69 17.87C58.43 23.14 54.84 29.85 53.39 37.15C51.94 44.45 52.68 52.02 55.53 58.9C58.38 65.78 63.21 71.67 69.4 75.8C75.59 79.94 82.87 82.15 90.32 82.15C100.3 82.14 109.87 78.17 116.93 71.11C123.99 64.05 127.96 54.48 127.97 44.5Z" fill="#750DC5" fill-opacity="1.000000" fill-rule="evenodd"/>
	<ellipse id="Ellipse 13" cx="28.000000" cy="176.500000" rx="28.000000" ry="9.500000" fill="#9F9F9F" fill-opacity="1.000000"/>
	<path id="Vector 41" d="M15.49 115.63L41.67 112.84C42.88 112.71 45.29 113.32 45.31 116.81C45.38 117.5 49.45 156.78 51.47 176.33C51.5 177.34 50.72 179.42 47.29 179.61L22.39 182.27C21.36 182.08 19.16 181.04 18.54 178.32L12.35 118.58C12.26 117.72 12.25 115.98 15.49 115.63Z" fill="#43096F" fill-opacity="1.000000" fill-rule="evenodd"/>
	<rect id="Rectangle 62" x="16.088379" y="123.000000" width="27.000000" height="51.000004" transform="rotate(-6.09149 16.088379 123.000000)" fill="#F6F6F6" fill-opacity="1.000000"/>
	<rect id="Rectangle 63" x="25.088379" y="118.000000" rx="1.000000" width="8.000000" height="2.000000" transform="rotate(-6.09149 25.088379 118.000000)" fill="#F6F6F6" fill-opacity="1.000000"/>
	<path id="Vector 41" d="M37.96 149.99C33.28 148.24 30.68 147.69 25.15 147.7" stroke="#0C0C0C" stroke-opacity="1.000000" stroke-width="2.000000" stroke-linecap="round"/>
	<circle id="Ellipse 14" cx="25.088379" cy="138.000000" r="2.000000" fill="#0C0C0C" fill-opacity="1.000000"/>
	<circle id="Ellipse 15" cx="37.088379" cy="136.000000" r="2.000000" fill="#0C0C0C" fill-opacity="1.000000"/>
	<path id="Vector 42" d="M20.08 137L25.08 132" stroke="#0C0C0C" stroke-opacity="1.000000" stroke-width="2.000000" stroke-linecap="round"/>
	<path id="Vector 43" d="M36.35 130.05L42.02 134.2" stroke="#0C0C0C" stroke-opacity="1.000000" stroke-width="2.000000" stroke-linecap="round"/>
</svg>
