<svg width="18" height="15" viewBox="0 0 18 15" fill="none" xmlns="http://www.w3.org/2000/svg">
  <path d="M8.96429 2.6875L9 2.72321L9.03571 2.6875L10.4018 1.32143C11.7321 -0.00892857 13.9286 -0.00892857 15.2589 1.32143C16.5893 2.65179 16.5893 4.84821 15.2589 6.17857L9 12.4375L2.74107 6.17857C1.41071 4.84821 1.41071 2.65179 2.74107 1.32143C4.07143 -0.00892857 6.26786 -0.00892857 7.59821 1.32143L8.96429 2.6875ZM9 15L16.875 7.125C18.75 5.25 18.75 2.25 16.875 0.375C15 -1.5 12 -1.5 10.125 0.375L9 1.5L7.875 0.375C6 -1.5 3 -1.5 1.125 0.375C-0.75 2.25 -0.75 5.25 1.125 7.125L9 15Z" fill="currentColor"/>
</svg> 