<svg width="20.000000" height="17.000000" viewBox="0 0 20 17" fill="none" xmlns="http://www.w3.org/2000/svg" xmlns:xlink="http://www.w3.org/1999/xlink">
	<desc>
			Created with Pixso.
	</desc>
	<defs/>
	<path id="Vector" d="M17.61 2.32C17.17 1.9 16.64 1.57 16.07 1.34C15.5 1.11 14.88 1 14.26 1C13.64 1 13.02 1.11 12.44 1.34C11.87 1.57 11.35 1.9 10.91 2.32L9.99 3.19L9.08 2.32C8.19 1.47 6.99 1 5.73 1C4.48 1 3.27 1.47 2.38 2.32C1.49 3.17 1 4.32 1 5.52C1 6.72 1.49 7.87 2.38 8.72L3.3 9.59L9.99 16L16.69 9.59L17.61 8.72C18.05 8.3 18.4 7.8 18.63 7.25C18.87 6.7 19 6.12 19 5.52C19 4.93 18.87 4.34 18.63 3.79C18.4 3.24 18.05 2.74 17.61 2.32Z" fill="#F6F6F6" fill-opacity="1.000000" fill-rule="evenodd"/>
	<path id="Vector" d="M16.07 1.34C15.5 1.11 14.88 1 14.26 1C13.64 1 13.02 1.11 12.44 1.34C11.87 1.57 11.35 1.9 10.91 2.32L9.99 3.19L9.08 2.32C8.19 1.47 6.99 1 5.73 1C4.48 1 3.27 1.47 2.38 2.32C1.49 3.17 1 4.32 1 5.52C1 6.72 1.49 7.87 2.38 8.72L3.3 9.59L9.99 16L16.69 9.59L17.61 8.72C18.05 8.3 18.4 7.8 18.63 7.25C18.87 6.7 19 6.12 19 5.52C19 4.93 18.87 4.34 18.63 3.79C18.4 3.24 18.05 2.74 17.61 2.32C17.17 1.9 16.64 1.57 16.07 1.34Z" stroke="#0C0C0C" stroke-opacity="1.000000" stroke-width="2.000000" stroke-linejoin="round"/>
</svg>
