<svg width="101" height="139" viewBox="0 0 101 139" fill="none" xmlns="http://www.w3.org/2000/svg">
  <rect width="101" height="139" rx="8" fill="#F6F6F6"/>
  <path d="M50.5 61.5556C52.8848 61.5556 54.8125 59.628 54.8125 57.2433C54.8125 54.8585 52.8848 52.9309 50.5 52.9309C48.1152 52.9309 46.1875 54.8585 46.1875 57.2433C46.1875 59.628 48.1152 61.5556 50.5 61.5556Z" stroke="#ABABAB" stroke-width="2" stroke-linecap="round" stroke-linejoin="round"/>
  <path d="M63.4375 69.5C63.4375 66.3783 62.1987 63.3834 59.9873 61.172C57.7759 58.9606 54.781 57.7218 51.6593 57.7218H49.3407C46.219 57.7218 43.2241 58.9606 41.0127 61.172C38.8013 63.3834 37.5625 66.3783 37.5625 69.5" stroke="#ABABAB" stroke-width="2" stroke-linecap="round" stroke-linejoin="round"/>
  <path d="M67.75 86.0682V52.9318C67.75 51.0435 66.9996 49.2329 65.6635 47.8968C64.3274 46.5607 62.5168 45.8103 60.6285 45.8103H40.3715C38.4832 45.8103 36.6726 46.5607 35.3365 47.8968C34.0004 49.2329 33.25 51.0435 33.25 52.9318V86.0682C33.25 87.9565 34.0004 89.7671 35.3365 91.1032C36.6726 92.4393 38.4832 93.1897 40.3715 93.1897H60.6285C62.5168 93.1897 64.3274 92.4393 65.6635 91.1032C66.9996 89.7671 67.75 87.9565 67.75 86.0682Z" stroke="#ABABAB" stroke-width="2" stroke-linecap="round" stroke-linejoin="round"/>
</svg> 